<?xml version="1.0" encoding="UTF-8" standalone="no"?>
<svg
   xmlns:dc="http://purl.org/dc/elements/1.1/"
   xmlns:cc="http://creativecommons.org/ns#"
   xmlns:rdf="http://www.w3.org/1999/02/22-rdf-syntax-ns#"
   xmlns:svg="http://www.w3.org/2000/svg"
   xmlns="http://www.w3.org/2000/svg"
   xmlns:sodipodi="http://sodipodi.sourceforge.net/DTD/sodipodi-0.dtd"
   xmlns:inkscape="http://www.inkscape.org/namespaces/inkscape"
   version="1.1"
   id="Layer_1"
   x="0px"
   y="0px"
   width="100%"
   viewBox="0 0 1024 1024"
   enable-background="new 0 0 1024 1024"
   xml:space="preserve"
   sodipodi:docname="file.svg"
   inkscape:version="1.0.2-2 (e86c870879, 2021-01-15)"><metadata
   id="metadata23"><rdf:RDF><cc:Work
       rdf:about=""><dc:format>image/svg+xml</dc:format><dc:type
         rdf:resource="http://purl.org/dc/dcmitype/StillImage" /></cc:Work></rdf:RDF></metadata><defs
   id="defs21"><inkscape:path-effect
     effect="powerclip"
     id="path-effect993"
     is_visible="true"
     lpeversion="1"
     inverse="true"
     flatten="false"
     hide_clip="false"
     message="Use fill-rule evenodd on &lt;b&gt;fill and stroke&lt;/b&gt; dialog if no flatten result after convert clip to paths." /><inkscape:path-effect
     effect="powerclip"
     id="path-effect925"
     is_visible="true"
     lpeversion="1"
     inverse="true"
     flatten="false"
     hide_clip="false"
     message="Use fill-rule evenodd on &lt;b&gt;fill and stroke&lt;/b&gt; dialog if no flatten result after convert clip to paths." /><clipPath
     clipPathUnits="userSpaceOnUse"
     id="clipPath872"><rect
       style="fill:#005500;fill-opacity:1;stroke-width:4.64707"
       id="rect874"
       width="336.11295"
       height="271.73376"
       x="-296.3577"
       y="437.83798"
       ry="24.210854" /></clipPath><clipPath
     clipPathUnits="userSpaceOnUse"
     id="clipPath921"><rect
       style="display:none;fill:#005500;fill-opacity:1;stroke-width:4.42709"
       id="rect923"
       width="299.97174"
       height="267.4447"
       x="269.8541"
       y="379.48236"
       ry="1.8446953"
       d="m 271.69879,379.48236 h 296.28235 c 1.02196,0 1.8447,0.82273 1.8447,1.8447 v 263.75531 c 0,1.02196 -0.82274,1.84469 -1.8447,1.84469 H 271.69879 c -1.02196,0 -1.84469,-0.82273 -1.84469,-1.84469 V 381.32706 c 0,-1.02197 0.82273,-1.8447 1.84469,-1.8447 z" /><path
       id="lpe_path-effect925"
       style="fill:#005500;fill-opacity:1;stroke-width:4.42709"
       class="powerclip"
       d="M 333.3435,126.61077 H 781.3422 V 650.39941 H 333.3435 Z m -61.64471,252.87159 c -1.02196,0 -1.84469,0.82273 -1.84469,1.8447 v 263.75531 c 0,1.02196 0.82273,1.84469 1.84469,1.84469 h 296.28235 c 1.02196,0 1.8447,-0.82273 1.8447,-1.84469 V 381.32706 c 0,-1.02197 -0.82274,-1.8447 -1.8447,-1.8447 z" /></clipPath><clipPath
     clipPathUnits="userSpaceOnUse"
     id="clipPath989"><path
       style="display:none;fill:#005500;fill-opacity:1;stroke-width:5.21788"
       id="path991"
       width="303.58588"
       height="268.64941"
       x="490.31531"
       y="109.62822"
       ry="1.6660043"
       sodipodi:type="rect"
       d="m 491.98131,109.62822 h 300.25387 c 0.92297,0 1.666,0.74304 1.666,1.666 v 265.31741 c 0,0.92297 -0.74303,1.666 -1.666,1.666 H 491.98131 c -0.92296,0 -1.666,-0.74303 -1.666,-1.666 V 111.29422 c 0,-0.92296 0.74304,-1.666 1.666,-1.666 z" /><path
       id="lpe_path-effect993"
       style="fill:#005500;fill-opacity:1;stroke-width:5.21788"
       class="powerclip"
       d="M 272.63764,125.55044 H 561.92073 V 650.39985 H 272.63764 Z m 219.34367,-15.92222 c -0.92296,0 -1.666,0.74304 -1.666,1.666 v 265.31741 c 0,0.92297 0.74304,1.666 1.666,1.666 h 300.25387 c 0.92297,0 1.666,-0.74303 1.666,-1.666 V 111.29422 c 0,-0.92296 -0.74303,-1.666 -1.666,-1.666 z" /></clipPath></defs><sodipodi:namedview
   pagecolor="#ffffff"
   bordercolor="#666666"
   borderopacity="1"
   objecttolerance="10"
   gridtolerance="10"
   guidetolerance="10"
   inkscape:pageopacity="0"
   inkscape:pageshadow="2"
   inkscape:window-width="1920"
   inkscape:window-height="1017"
   id="namedview19"
   showgrid="false"
   inkscape:zoom="0.58695387"
   inkscape:cx="391.24067"
   inkscape:cy="373.77547"
   inkscape:window-x="1912"
   inkscape:window-y="-8"
   inkscape:window-maximized="1"
   inkscape:current-layer="Layer_1" />
<path
   fill="#000000"
   opacity="1"
   stroke="none"
   d="M 504.99994,645.30774 C 134.85191,463.5523 496.85444,625.49166 496.66,577.47711 c 0.009,-107.99734 -0.43353,-215.9974 0.22812,-323.99071 0.28586,-46.65365 21.33478,-82.80992 61.48297,-107.02177 16.51801,-9.96143 34.78693,-14.88402 54.25666,-14.82108 20.66589,0.0668 41.33404,0.18404 61.99804,-0.0268 50.32422,-0.51344 85.19989,32.10603 96.62433,72.651 3.44605,12.22972 5.07282,24.715 5.0705,37.42743 -0.0165,92.1644 -0.0804,184.32886 0.0215,276.4931 0.0425,38.51508 -15.90149,69.55432 -44.08221,94.72632 -18.6731,16.67945 -40.4751,27.30872 -65.43811,30.99164 -11.08875,1.63599 -22.25141,1.43073 -33.40894,1.40942 -9.99975,-0.0191 -20.00335,-0.17004 -29.99744,0.0657 -4.23559,0.1 -5.91729,-1.08087 -5.84942,-5.60681 0.22729,-15.16272 0.20532,-30.33326 -0.0217,-45.49622 -0.0648,-4.32709 1.20075,-5.80939 5.65186,-5.74499 16.32952,0.23626 32.68872,-0.46643 48.99255,0.22552 39.05774,1.65765 61.75226,-30.73437 66.49463,-57.30969 2.98077,-16.70349 1.92944,-33.54209 1.63336,-50.33054 -0.14117,-8.00696 0.22449,-15.98407 0.23145,-23.97436 0.0426,-49.33203 0.0218,-98.66413 0.0239,-147.99622 9.2e-4,-20.82397 0.1535,-41.64941 -0.0516,-62.47131 -0.10523,-10.68225 -1.15375,-21.33223 -5.90491,-31.15166 -8.2287,-17.00658 -21.64246,-26.1499 -40.7815,-26.20541 -18.66601,-0.0541 -37.35272,0.55526 -55.99383,-0.12578 -28.52887,-1.04231 -47.64227,17.58902 -56.30914,38.55105 -3.82685,9.2556 -5.0655,18.99707 -5.08967,28.83582 -0.10351,42.16458 -0.009,84.3298 0.082,126.49466 0.0657,30.48373 0.28887,60.96719 0.35113,91.45093 0.0613,29.98868 0.0698,59.97775 -0.0137,89.96628 -0.0695,24.98852 -0.4151,49.97686 -0.37012,74.96478 0.008,4.64404 -1.49548,6.00708 -6.01147,5.93964 -14.99018,-0.22382 -29.98572,-0.0875 -45.47925,-0.0894 z"
   id="path2"
   clip-path="url(#clipPath921)"
   inkscape:path-effect="#path-effect925"
   inkscape:original-d="M 504.99994,645.30774 C 134.85191,463.5523 496.85444,625.49166 496.66,577.47711 c 0.009,-107.99734 -0.43353,-215.9974 0.22812,-323.99071 0.28586,-46.65365 21.33478,-82.80992 61.48297,-107.02177 16.51801,-9.96143 34.78693,-14.88402 54.25666,-14.82108 20.66589,0.0668 41.33404,0.18404 61.99804,-0.0268 50.32422,-0.51344 85.19989,32.10603 96.62433,72.651 3.44605,12.22972 5.07282,24.715 5.0705,37.42743 -0.0165,92.1644 -0.0804,184.32886 0.0215,276.4931 0.0425,38.51508 -15.90149,69.55432 -44.08221,94.72632 -18.6731,16.67945 -40.4751,27.30872 -65.43811,30.99164 -11.08875,1.63599 -22.25141,1.43073 -33.40894,1.40942 -9.99975,-0.0191 -20.00335,-0.17004 -29.99744,0.0657 -4.23559,0.1 -5.91729,-1.08087 -5.84942,-5.60681 0.22729,-15.16272 0.20532,-30.33326 -0.0217,-45.49622 -0.0648,-4.32709 1.20075,-5.80939 5.65186,-5.74499 16.32952,0.23626 32.68872,-0.46643 48.99255,0.22552 39.05774,1.65765 61.75226,-30.73437 66.49463,-57.30969 2.98077,-16.70349 1.92944,-33.54209 1.63336,-50.33054 -0.14117,-8.00696 0.22449,-15.98407 0.23145,-23.97436 0.0426,-49.33203 0.0218,-98.66413 0.0239,-147.99622 9.2e-4,-20.82397 0.1535,-41.64941 -0.0516,-62.47131 -0.10523,-10.68225 -1.15375,-21.33223 -5.90491,-31.15166 -8.2287,-17.00658 -21.64246,-26.1499 -40.7815,-26.20541 -18.66601,-0.0541 -37.35272,0.55526 -55.99383,-0.12578 -28.52887,-1.04231 -47.64227,17.58902 -56.30914,38.55105 -3.82685,9.2556 -5.0655,18.99707 -5.08967,28.83582 -0.10351,42.16458 -0.009,84.3298 0.082,126.49466 0.0657,30.48373 0.28887,60.96719 0.35113,91.45093 0.0613,29.98868 0.0698,59.97775 -0.0137,89.96628 -0.0695,24.98852 -0.4151,49.97686 -0.37012,74.96478 0.008,4.64404 -1.49548,6.00708 -6.01147,5.93964 -14.99018,-0.22382 -29.98572,-0.0875 -45.47925,-0.0894 z"
   sodipodi:nodetypes="ccssssscssssssssssscsssssssssssscc"
   style="fill:#005c00;fill-opacity:1"
   transform="matrix(1.8130258,0,0,1.8130258,-438.67867,-192.76658)" />







<path
   fill="#000000"
   opacity="1"
   stroke="none"
   d="m 504.99994,645.30774 c -73.4982,0.002 -146.49635,0.004 -219.49455,0.004 -7.66342,-1.2e-4 -7.68317,-0.01 -7.68457,-7.73193 -0.0304,-166.82914 -0.0352,-333.6583 -0.18317,-500.48729 -0.004,-4.99884 1.30643,-6.55489 6.4199,-6.542 63.83132,0.16101 127.66329,0.153 191.49479,0.016 4.6731,-0.01 5.9484,1.49023 5.8784,5.99672 -0.2303,14.82919 -0.2347,29.66731 0.03,44.49568 0.085,4.78822 -1.4111,6.25276 -6.2372,6.23113 -42.4982,-0.19062 -84.99738,-0.14806 -127.49629,-0.16465 -7.45635,-0.003 -7.48342,0.0183 -7.48364,7.5434 -0.003,128.99678 -8.2e-4,257.99355 0.005,386.99031 3.7e-4,6.99774 0.0209,6.98267 6.87864,6.98096 46.33212,-0.0113 92.66419,-0.0141 138.99639,-0.0272 2.1656,-6.1e-4 4.3313,-0.11304 6.4966,-0.10199 2.7404,0.014 3.9077,-1.46057 3.9587,-4.03516 0.046,-2.3324 0.081,-4.6654 0.081,-6.99817 0.01,-107.99734 -0.4336,-215.9974 0.2281,-323.99071 60.62499,-104.3256 60.31818,-101.23239 59.5522,3.09436 -0.1035,42.16458 -0.01,84.3298 0.082,126.49466 0.066,30.48373 0.2888,60.96719 0.3511,91.45093 0.061,29.98868 0.07,59.97775 -0.014,89.96628 -0.07,24.98852 -0.4151,49.97686 -0.3701,74.96478 0.01,4.64404 -1.4955,6.00708 -6.0115,5.93964 -14.9902,-0.22382 -29.9857,-0.0875 -45.4792,-0.0894 z"
   id="path2-0"
   inkscape:original-d="m 504.99994,645.30774 c -73.4982,0.002 -146.49635,0.004 -219.49455,0.004 -7.66342,-1.2e-4 -7.68317,-0.01 -7.68457,-7.73193 -0.0304,-166.82914 -0.0352,-333.6583 -0.18317,-500.48729 -0.004,-4.99884 1.30643,-6.55489 6.4199,-6.542 63.83132,0.16101 127.66329,0.153 191.49479,0.016 4.6731,-0.01 5.9484,1.49023 5.8784,5.99672 -0.2303,14.82919 -0.2347,29.66731 0.03,44.49568 0.085,4.78822 -1.4111,6.25276 -6.2372,6.23113 -42.4982,-0.19062 -84.99738,-0.14806 -127.49629,-0.16465 -7.45635,-0.003 -7.48342,0.0183 -7.48364,7.5434 -0.003,128.99678 -8.2e-4,257.99355 0.005,386.99031 3.7e-4,6.99774 0.0209,6.98267 6.87864,6.98096 46.33212,-0.0113 92.66419,-0.0141 138.99639,-0.0272 2.1656,-6.1e-4 4.3313,-0.11304 6.4966,-0.10199 2.7404,0.014 3.9077,-1.46057 3.9587,-4.03516 0.046,-2.3324 0.081,-4.6654 0.081,-6.99817 0.01,-107.99734 -0.4336,-215.9974 0.2281,-323.99071 60.62499,-104.3256 60.31818,-101.23239 59.5522,3.09436 -0.1035,42.16458 -0.01,84.3298 0.082,126.49466 0.066,30.48373 0.2888,60.96719 0.3511,91.45093 0.061,29.98868 0.07,59.97775 -0.014,89.96628 -0.07,24.98852 -0.4151,49.97686 -0.3701,74.96478 0.01,4.64404 -1.4955,6.00708 -6.0115,5.93964 -14.9902,-0.22382 -29.9857,-0.0875 -45.4792,-0.0894 z"
   sodipodi:nodetypes="cscccssccccscssccccccscscc"
   clip-path="url(#clipPath989)"
   inkscape:path-effect="#path-effect993"
   transform="matrix(1.8130258,0,0,1.8130258,-438.67867,-192.76658)" /></svg>
